# xmcd
#
# Track frame offsets: 
#        150
#        19019
#        35510
#        52678
#        65413
#        87754
#        104030
#        120461
#        138090
#        155970
#
# Disc length: 2253 seconds
#
# Revision: 0
# Processed by: cddbd v1.5.2PL0 Copyright (c) Steve Scherf et al.
# Submitted via: ExactAudioCopy v1.3
#
DISCID=7d08cb0a
DTITLE=Cirkus Prutz - White Jazz - Black Magic
DYEAR=2019
DGENRE=Rock
TTITLE0=Leave Me Alone
TTITLE1=Mojo
TTITLE2=Shotgun Wedding Blues
TTITLE3=Aim To Please
TTITLE4=Blues For Fallen Brothers
TTITLE5=Hell To Pay
TTITLE6=Ready To Go
TTITLE7=Friends
TTITLE8=Hats'n'Strats
TTITLE9=Zombie Stomp
EXTD=
EXTT0=
EXTT1=
EXTT2=
EXTT3=
EXTT4=
EXTT5=
EXTT6=
EXTT7=
EXTT8=
EXTT9=
PLAYORDER=
